<?xml version="1.0" encoding="utf-8"?>
<!-- Generator: Adobe Illustrator 21.0.0, SVG Export Plug-In . SVG Version: 6.00 Build 0)  -->
<svg version="1.1" id="a6d09f17-7a71-4d3b-9de6-8b8ba964cb80"
	 xmlns="http://www.w3.org/2000/svg" xmlns:xlink="http://www.w3.org/1999/xlink" x="0px" y="0px" viewBox="0 0 883.7 724.2"
	 style="enable-background:new 0 0 883.7 724.2;" xml:space="preserve">
<style type="text/css">
	.st0{fill:#E6E6E6;}
	.st1{fill:#FFFFFF;}
	.st2{fill:#4C3CFF;}
	.st3{fill:#FFB8B8;}
	.st4{fill:#2F2E41;}
	.st5{fill:#CCCCCC;}
</style>
<g>
	<path class="st0" d="M480.8,585.6h-274c-9.1,0-16.5-7.4-16.5-16.5v-197c0-9.1,7.4-16.5,16.5-16.5h274c9.1,0,16.5,7.4,16.5,16.5v197
		C497.3,578.2,489.9,585.6,480.8,585.6z"/>
	<path class="st1" d="M211.9,572.5h263.9c4.4,0,8-3.6,8-8V376.8c0-4.4-3.6-8-8-8H211.9c-4.4,0-8,3.6-8,8v187.7
		C203.9,568.9,207.4,572.5,211.9,572.5z"/>
	<path class="st0" d="M444.3,427.1H275.7c-3.3,0-6,2.7-6,6s2.7,6,6,6l0,0h168.6c3.3,0,6-2.7,6-6S447.6,427.1,444.3,427.1z"/>
	<path class="st0" d="M275.7,464.1c-3.3,0-6,2.7-6,6c0,3.3,2.7,6,6,6l0,0h168.6c3.3,0,6-2.7,6-6c0-3.3-2.7-6-6-6H275.7z"/>
	<path class="st0" d="M275.7,501.2c-3.3,0-6,2.7-6,6c0,3.3,2.7,6,6,6l0,0h168.6c3.3,0,6-2.7,6-6c0-3.3-2.7-6-6-6H275.7z"/>
	<circle class="st2" cx="243.8" cy="433.6" r="7.4"/>
	<circle class="st0" cx="243.8" cy="470.6" r="7.4"/>
	<circle class="st0" cx="243.8" cy="507.7" r="7.4"/>
	<path class="st2" d="M377.1,433.1L377.1,433.1c0,3.3-2.7,6-6,6h0h-95.2c-3.1,0-5.7-2.2-6.2-5.2c-0.4-3.3,1.9-6.3,5.2-6.8
		c0.3,0,0.5-0.1,0.8-0.1h95.4C374.4,427.1,377.1,429.8,377.1,433.1L377.1,433.1z"/>
	<circle class="st0" cx="343.8" cy="306.2" r="24.1"/>
	<ellipse transform="matrix(0.1602 -0.9871 0.9871 0.1602 -13.5605 596.5348)" class="st1" cx="343.8" cy="306.2" rx="12" ry="12"/>
</g>
<g>
	<path class="st0" d="M865.5,305h-274c-9.1,0-16.5-7.4-16.5-16.5v-197c0-9.1,7.4-16.5,16.5-16.5h274c9.1,0,16.5,7.4,16.5,16.5v197
		C882,297.6,874.6,305,865.5,305z"/>
	<path class="st1" d="M596.6,291.8h263.9c4.4,0,8-3.6,8-8V96.1c0-4.4-3.6-8-8-8H596.6c-4.4,0-8,3.6-8,8v187.7
		C588.6,288.2,592.2,291.8,596.6,291.8z"/>
	<path class="st0" d="M616.1,184.3c-3.3,0-6,2.7-6,6c0,3.3,2.7,6,6,6c0,0,0,0,0,0h224.9c3.3,0,6-2.7,6-6c0-3.3-2.7-6-6-6
		c0,0,0,0,0,0H616.1z"/>
	<path class="st0" d="M616.1,221c-3.3,0-6,2.7-6,6c0,3.3,2.7,6,6,6c0,0,0,0,0,0h224.9c3.3,0,6-2.7,6-6c0-3.3-2.7-6-6-6H616.1z"/>
	<path class="st2" d="M716.6,259.5c-3.3,0-6,2.7-6,6c0,3.3,2.7,6,6,6h23.9c3.3,0,6-2.7,6-6c0-3.3-2.7-6-6-6H716.6z"/>
	<path class="st2" d="M696.5,108.5c-1,0-1.8,0.8-1.8,1.8v46.6c0,1,0.8,1.8,1.8,1.8h64c1,0,1.8-0.8,1.8-1.8v-46.6
		c0-1-0.8-1.8-1.8-1.8L696.5,108.5z"/>
	<circle class="st1" cx="728.5" cy="128.5" r="10.1"/>
	<path class="st1" d="M745,154.2c0,1.6-0.4,3.2-1.1,4.6h-30.8c-2.5-5-0.6-11,4.4-13.6c1.4-0.7,3-1.1,4.6-1.1h12.8
		C740.5,144.1,745,148.6,745,154.2L745,154.2z"/>
	<circle class="st1" cx="728.5" cy="128.5" r="10.1"/>
	<path class="st1" d="M745,154.2c0,1.6-0.4,3.2-1.1,4.6h-30.8c-2.5-5-0.6-11,4.4-13.6c1.4-0.7,3-1.1,4.6-1.1h12.8
		C740.5,144.1,745,148.6,745,154.2L745,154.2z"/>
	<circle class="st0" cx="728.5" cy="25.7" r="23.9"/>
	<circle class="st2" cx="728.5" cy="25.7" r="11.9"/>
</g>
<g>
	<polygon class="st3" points="130.2,667.1 147.1,667.1 141.7,711.2 130.2,711.2 	"/>
	<path class="st4" d="M149.8,708c7.7,0,13.9,6.2,13.9,13.9l0,0l0,0h-35.9l0,0V708l0,0H149.8L149.8,708z"/>
	<polygon class="st3" points="68.6,667.1 85.5,667.1 80,711.2 68.6,711.2 	"/>
	<path class="st4" d="M88.2,708c7.7,0,13.9,6.2,13.9,13.9l0,0l0,0H66.2l0,0V708l0,0H88.2L88.2,708z"/>
	<circle class="st3" cx="102.1" cy="373.2" r="24.6"/>
	<path class="st3" d="M186.1,533.4c0.6,4.3-1.9,8.5-6,10c-4.9,1.9-10.3-0.5-12.2-5.4l-19.7-23l12-5.9l13.7,16.5
		c0.5-0.2,1.1-0.3,1.6-0.4C180.7,524.6,185.4,528.2,186.1,533.4L186.1,533.4z"/>
	<path class="st3" d="M67.9,550c-1.8,4-6.1,6.1-10.4,5.3c-5.1-1-8.4-6-7.4-11.1l-4.3-30l13.3,1.5l2.8,21.3c0.5,0.1,1.1,0.3,1.6,0.6
		C68.1,539.8,70.1,545.3,67.9,550L67.9,550z"/>
	<path class="st2" d="M83.1,432l-9.5,21.2c-10.7,23.9-14.7,50.2-11.7,76.2l0,0c0.2,1.9-1,3.7-2.8,4.3l-8.6,2.7
		c-0.2,0.1-0.4,0.1-0.6,0.1c-2.2,0.3-4.2-1.2-4.5-3.4L38.8,489c-0.8-5.5-0.2-11.1,1.9-16.2l20.1-50.2c0.8-2,2.1-3.7,3.8-5
		c5.3-4.1,12.9-3.2,17,2.1l0,0C84.3,423.1,84.9,427.9,83.1,432z"/>
	<path class="st4" d="M105.1,390.4c1.5-4.2,0.3-8.9-3.1-11.8c-3.1-2.6-1.6-8.1,1.9-10.2s7.9-1.7,11.9-1s8.2,1.4,12-0.2
		c5.9-2.4,8.4-10.1,6-16s-8.6-9.6-14.9-10.2s-12.6,1.6-18,4.9c-2-0.4-4-0.6-6-0.6c-14.5,0.3-25.9,12.3-25.6,26.8
		c0.3,14.5,12.3,25.9,26.8,25.6C99.3,397.7,103.6,394.4,105.1,390.4z"/>
	<path class="st4" d="M137.4,530.8l12.4,160.8c0.1,1.8-1,3.5-2.6,4.1l-14.2,0.9c-0.2,0.1-0.3,0.1-0.5,0.1c-2.2,0.5-4.3-0.9-4.8-3
		l-23.1-103.4c-0.2-0.8-0.8-1.4-1.6-1.5c-1.1-0.2-2.1,0.6-2.3,1.7L83.6,697.8c-0.3,1.9-1.9,3.3-3.7,3.4l-14.4,0.7
		c-0.1,0-0.2,0-0.3,0c-2.2-0.1-4-1.9-3.9-4.1l4.4-165.3L137.4,530.8z"/>
	<path class="st2" d="M62.3,530.4c-2.5,26,59.5,10.3,73.3,7.6s4.9-4.8-5.1-41.8s19.1-36,2.5-78.7c-5.5-14.2-22.3-13.9-33.1-13.1
		c-25.1,1.8-43.5,24.4-41.1,49.5C61,478.9,63.9,514.4,62.3,530.4z"/>
	<path class="st2" d="M137.6,423l3.1,26c2.9,24.1,12.2,47,27,66.2l1.8,2.3c1.2,1.5,1.1,3.7-0.2,5.1l-6,6.7c-0.1,0.1-0.3,0.3-0.4,0.4
		c-1.7,1.4-4.2,1.2-5.6-0.6l-25.5-31c-5.4-6.6-8.9-14.4-10.3-22.8l-7.8-49c-0.3-2.1-0.1-4.3,0.7-6.3c2.4-6.2,9.4-9.3,15.6-6.9l0,0
		C134.1,414.8,137.1,418.6,137.6,423z"/>
	<path class="st5" d="M-5.4,723.2c0-0.6,0.4-1,1-1h258c0.6,0,1,0.4,1,1s-0.4,1-1,1h-258C-4.9,724.2-5.4,723.8-5.4,723.2z"/>
</g>
</svg>
