<?xml version="1.0" encoding="utf-8"?>
<!-- Generator: Adobe Illustrator 21.0.0, SVG Export Plug-In . SVG Version: 6.00 Build 0)  -->
<svg version="1.1" id="f26437e7-89a7-4b5d-86a1-b6b68813c70b"
	 xmlns="http://www.w3.org/2000/svg" xmlns:xlink="http://www.w3.org/1999/xlink" x="0px" y="0px" viewBox="0 0 769.4 524.4"
	 style="enable-background:new 0 0 769.4 524.4;" xml:space="preserve">
<style type="text/css">
	.st0{fill:#E6E6E6;}
	.st1{fill:#4C3CFF;}
	.st2{fill:#3F3D56;}
	.st3{fill:#FFB8B8;}
	.st4{fill:#2F2E41;}
</style>
<circle class="st0" cx="174.8" cy="6.8" r="6.8"/>
<circle class="st0" cx="209.2" cy="6.8" r="6.8"/>
<circle class="st0" cx="243.7" cy="6.8" r="6.8"/>
<circle class="st0" cx="278.2" cy="6.8" r="6.8"/>
<circle class="st0" cx="312.7" cy="6.8" r="6.8"/>
<circle class="st0" cx="174.8" cy="41.7" r="6.8"/>
<circle class="st0" cx="209.2" cy="41.7" r="6.8"/>
<circle class="st0" cx="243.7" cy="41.7" r="6.8"/>
<circle class="st1" cx="278.2" cy="41.7" r="6.8"/>
<circle class="st0" cx="312.7" cy="41.7" r="6.8"/>
<circle class="st0" cx="381.7" cy="41.7" r="6.8"/>
<circle class="st0" cx="174.8" cy="76.7" r="6.8"/>
<circle class="st0" cx="209.2" cy="76.7" r="6.8"/>
<circle class="st0" cx="243.7" cy="76.7" r="6.8"/>
<circle class="st0" cx="278.2" cy="76.7" r="6.8"/>
<circle class="st0" cx="312.7" cy="76.7" r="6.8"/>
<circle class="st0" cx="174.8" cy="111.6" r="6.8"/>
<circle class="st0" cx="209.2" cy="111.6" r="6.8"/>
<circle class="st0" cx="243.7" cy="111.6" r="6.8"/>
<circle class="st0" cx="278.2" cy="111.6" r="6.8"/>
<circle class="st0" cx="312.7" cy="111.6" r="6.8"/>
<circle class="st0" cx="347.2" cy="111.6" r="6.8"/>
<circle class="st0" cx="381.7" cy="111.6" r="6.8"/>
<circle class="st0" cx="416.2" cy="111.6" r="6.8"/>
<circle class="st0" cx="450.7" cy="111.6" r="6.8"/>
<circle class="st0" cx="485.2" cy="111.6" r="6.8"/>
<circle class="st0" cx="312.7" cy="146.5" r="6.8"/>
<circle class="st1" cx="347.2" cy="146.5" r="6.8"/>
<circle class="st0" cx="381.7" cy="146.5" r="6.8"/>
<circle class="st0" cx="416.2" cy="146.5" r="6.8"/>
<circle class="st0" cx="450.7" cy="146.5" r="6.8"/>
<circle class="st0" cx="485.2" cy="146.5" r="6.8"/>
<circle class="st0" cx="312.7" cy="181.4" r="6.8"/>
<circle class="st0" cx="347.2" cy="181.4" r="6.8"/>
<circle class="st0" cx="381.7" cy="181.4" r="6.8"/>
<circle class="st0" cx="416.2" cy="181.4" r="6.8"/>
<circle class="st1" cx="450.7" cy="181.4" r="6.8"/>
<circle class="st0" cx="485.2" cy="181.4" r="6.8"/>
<circle class="st0" cx="312.7" cy="216.3" r="6.8"/>
<circle class="st0" cx="347.2" cy="216.3" r="6.8"/>
<circle class="st0" cx="381.7" cy="216.3" r="6.8"/>
<circle class="st0" cx="416.2" cy="216.3" r="6.8"/>
<circle class="st0" cx="450.7" cy="216.3" r="6.8"/>
<circle class="st0" cx="485.2" cy="216.3" r="6.8"/>
<circle class="st0" cx="174.8" cy="251.3" r="6.8"/>
<circle class="st0" cx="209.2" cy="251.3" r="6.8"/>
<circle class="st0" cx="243.7" cy="251.3" r="6.8"/>
<circle class="st0" cx="278.2" cy="251.3" r="6.8"/>
<circle class="st0" cx="312.7" cy="251.3" r="6.8"/>
<circle class="st0" cx="347.2" cy="251.3" r="6.8"/>
<circle class="st0" cx="381.7" cy="251.3" r="6.8"/>
<circle class="st0" cx="416.2" cy="251.3" r="6.8"/>
<circle class="st0" cx="450.7" cy="251.3" r="6.8"/>
<circle class="st0" cx="485.2" cy="251.3" r="6.8"/>
<circle class="st0" cx="174.8" cy="286.2" r="6.8"/>
<circle class="st0" cx="209.2" cy="286.2" r="6.8"/>
<circle class="st0" cx="174.8" cy="321.1" r="6.8"/>
<circle class="st0" cx="209.2" cy="321.1" r="6.8"/>
<circle class="st0" cx="278.2" cy="321.1" r="6.8"/>
<path class="st0" d="M622,80.4H352c-2.8,0-5-2.2-5-5v-67c0-2.8,2.2-5,5-5h270c2.8,0,5,2.2,5,5v67C627,78.1,624.8,80.4,622,80.4z
	 M352,5.4c-1.7,0-3,1.3-3,3v67c0,1.7,1.3,3,3,3h270c1.7,0,3-1.3,3-3v-67c0-1.7-1.3-3-3-3H352z"/>
<circle class="st1" cx="387" cy="41.9" r="21"/>
<path class="st0" d="M435.5,27.9c-1.9,0-3.5,1.6-3.5,3.5s1.6,3.5,3.5,3.5h93c1.9,0,3.5-1.6,3.5-3.5s-1.6-3.5-3.5-3.5H435.5z"/>
<path class="st0" d="M435.5,48.9c-1.9,0-3.5,1.6-3.5,3.5s1.6,3.5,3.5,3.5h165c1.9,0,3.5-1.6,3.5-3.5s-1.6-3.5-3.5-3.5H435.5z"/>
<path class="st0" d="M275,216.4H5c-2.8,0-5-2.2-5-5v-67c0-2.8,2.2-5,5-5h270c2.8,0,5,2.2,5,5v67C280,214.1,277.8,216.4,275,216.4z
	 M5,141.4c-1.7,0-3,1.3-3,3v67c0,1.7,1.3,3,3,3h270c1.7,0,3-1.3,3-3v-67c0-1.7-1.3-3-3-3H5z"/>
<circle class="st1" cx="40" cy="177.9" r="21"/>
<path class="st0" d="M88.5,163.9c-1.9,0-3.5,1.6-3.5,3.5s1.6,3.5,3.5,3.5h97c1.9,0,3.5-1.6,3.5-3.5s-1.6-3.5-3.5-3.5H88.5z"/>
<path class="st0" d="M88.5,184.9c-1.9,0-3.5,1.6-3.5,3.5s1.6,3.5,3.5,3.5h165c1.9,0,3.5-1.6,3.5-3.5s-1.6-3.5-3.5-3.5H88.5z"/>
<path class="st2" d="M519,363.4H249c-2.8,0-5-2.2-5-5v-67c0-2.8,2.2-5,5-5h270c2.8,0,5,2.2,5,5v67C524,361.1,521.8,363.4,519,363.4z
	 M249,288.4c-1.7,0-3,1.3-3,3v67c0,1.7,1.3,3,3,3h270c1.7,0,3-1.3,3-3v-67c0-1.7-1.3-3-3-3H249z"/>
<circle class="st1" cx="284" cy="324.9" r="21"/>
<path class="st0" d="M332.5,310.9c-1.9,0-3.5,1.6-3.5,3.5s1.6,3.5,3.5,3.5h89c1.9,0,3.5-1.6,3.5-3.5s-1.6-3.5-3.5-3.5H332.5z"/>
<path class="st0" d="M332.5,331.9c-1.9,0-3.5,1.6-3.5,3.5s1.6,3.5,3.5,3.5h165c1.9,0,3.5-1.6,3.5-3.5s-1.6-3.5-3.5-3.5H332.5z"/>
<path class="st0" d="M664.2,346.4c-11.7,35.2-59.7-2.1-59.7-2.1L617.3,211c19.2-14.9,39.4-2.1,39.4-2.1L664.2,346.4z"/>
<polygon class="st3" points="661.7,464.5 678.1,464.6 674,511.7 661.7,511.7 "/>
<path class="st4" d="M658.6,507.7h24.1c8.5,0,15.4,6.9,15.4,15.4v0.5h-39.5V507.7z"/>
<polygon class="st3" points="617.4,464.5 599.3,464.5 605.2,511.7 617.4,511.7 "/>
<path class="st4" d="M581,523.6v-0.5c0-8.5,6.9-15.4,15.4-15.4l24.1,0l0,15.9L581,523.6z"/>
<path class="st4" d="M660.6,503.6l-21.4-124.8L619.4,502l-20.1,1.1L593.9,338l0.4-0.1c3.3-0.7,81.5-17.9,94.4,6.7l0.1,0.1L678,504.1
	L660.6,503.6z"/>
<circle class="st3" cx="637.9" cy="170.8" r="24.6"/>
<path class="st4" d="M658.6,356.9c-2.9-0.8-5-4.1-6.5-10.4c-0.3-1.1-25.8-109.7-4.2-129.4l5-13.8l6.8,4.5c2.4,0,27,0.6,29.1,16.4
	c2.1,15.4,7.7,118.9,2,125.3c-0.2,0.3-0.6,0.5-0.9,0.5c-5.7,0-7.4-6.3-7.9-8.4c-1.4,0.6-5.4,2.6-12,9.3c-4.1,4.1-7.3,6.1-10,6.1
	C659.5,357.1,659,357,658.6,356.9z"/>
<path class="st4" d="M605.3,351c-6.6-6.6-10.7-8.7-12-9.3c-0.4,2-2.1,8.4-7.9,8.4c-0.4,0-0.7-0.2-0.9-0.5c-5.6-6.4,0-109.9,2-125.3
	c2.1-15.8,26.7-16.4,29.1-16.4l6.8-4.5l5,13.8c21.6,19.7-3.9,128.3-4.2,129.4c-1.6,6.3-3.7,9.6-6.5,10.4c-0.4,0.1-0.9,0.2-1.4,0.2
	C612.6,357.1,609.4,355.1,605.3,351z"/>
<path class="st4" d="M658.2,184.9c11.3-8.1,13.9-23.9,5.7-35.2c-4.2-5.9-10.8-9.6-18-10.4c-2.3-0.2-4.7-0.2-6.6-1.5
	c-1.7-1.1-2.6-3.1-4.1-4.4c-2-1.5-4.5-2.2-6.9-1.7c-2.4,0.4-4.8,1.2-7,2.3c-5.4,2.4-11.2,5.4-13.7,10.8c-2.1,4.7-1.2,10.5,1.8,14.7
	c3.2,4.1,7.9,6.9,13,7.7c5.1,0.8,10.4,0.3,15.3-1.4c3.2-1,6.4-2.4,9.8-2.5c7.4-0.2,13.6,5.5,13.8,12.9c0.1,3.6-1.2,7.1-3.7,9.6"/>
<path class="st3" d="M524.3,331c6-0.1,10.7-5.1,10.5-11l14.3-24.2l-11.1-10.1l-15.1,23.8c-5.9,0.6-10.3,5.8-9.7,11.8
	C513.9,326.9,518.7,331.1,524.3,331z"/>
<path class="st3" d="M690.5,357.5c5-3.3,6.4-9.9,3.1-14.9l0,0l-0.5-28.1l-14.8-2.8l-0.3,28.2c-4.7,3.6-5.7,10.4-2.1,15.1
	C679.4,359.5,685.8,360.5,690.5,357.5z"/>
<path class="st4" d="M528.7,292.1l-0.2-0.3l0.2-0.3c21.5-34.5,66.6-77.6,67-78l0.1-0.1l5.6-0.1l6,15c-1.9,3.6-52.4,74.1-59.1,78.8
	c-1.1,0.7-2.4,1-3.7,0.7c-1.1-0.3-2.2-0.7-3.1-1.3C535.4,302.7,529,292.6,528.7,292.1z"/>
<path class="st4" d="M675.6,331.5c-1.2-0.4-2.2-1.3-2.7-2.5c-3.2-7.5,10.6-102.3,11.2-106.3l0.1-0.8l4.7,3l0,0.2
	c0.1,0.6,13.7,61,10,101.1l0,0.3l-0.3,0.1c-0.6,0.3-11.9,5.5-19.4,5.5C677.9,332.1,676.7,331.9,675.6,331.5z"/>
</svg>
