<?xml version="1.0" encoding="utf-8"?>
<!-- Generator: Adobe Illustrator 21.0.0, SVG Export Plug-In . SVG Version: 6.00 Build 0)  -->
<svg version="1.1" id="f26437e7-89a7-4b5d-86a1-b6b68813c70b"
	 xmlns="http://www.w3.org/2000/svg" xmlns:xlink="http://www.w3.org/1999/xlink" x="0px" y="0px" viewBox="0 0 769.4 524.4"
	 style="enable-background:new 0 0 769.4 524.4;" xml:space="preserve">
<style type="text/css">
	.st0{fill:#E6E6E6;}
	.st1{fill:#4C3CFF;}
	.st2{fill:#3F3D56;}
	.st3{fill:#FFB8B8;}
	.st4{fill:#2F2E41;}
</style>
<circle class="st0" cx="594.7" cy="6.8" r="6.8"/>
<circle class="st0" cx="560.2" cy="6.8" r="6.8"/>
<circle class="st0" cx="525.7" cy="6.8" r="6.8"/>
<circle class="st0" cx="491.2" cy="6.8" r="6.8"/>
<circle class="st0" cx="456.7" cy="6.8" r="6.8"/>
<circle class="st0" cx="594.7" cy="41.7" r="6.8"/>
<circle class="st0" cx="560.2" cy="41.7" r="6.8"/>
<circle class="st0" cx="525.7" cy="41.7" r="6.8"/>
<circle class="st1" cx="491.2" cy="41.7" r="6.8"/>
<circle class="st0" cx="456.7" cy="41.7" r="6.8"/>
<circle class="st0" cx="594.7" cy="76.7" r="6.8"/>
<circle class="st0" cx="560.2" cy="76.7" r="6.8"/>
<circle class="st0" cx="525.7" cy="76.7" r="6.8"/>
<circle class="st0" cx="491.2" cy="76.7" r="6.8"/>
<circle class="st0" cx="456.7" cy="76.7" r="6.8"/>
<circle class="st0" cx="594.7" cy="111.6" r="6.8"/>
<circle class="st0" cx="560.2" cy="111.6" r="6.8"/>
<circle class="st0" cx="525.7" cy="111.6" r="6.8"/>
<circle class="st0" cx="491.2" cy="111.6" r="6.8"/>
<circle class="st0" cx="456.7" cy="111.6" r="6.8"/>
<circle class="st0" cx="422.2" cy="111.6" r="6.8"/>
<circle class="st0" cx="387.7" cy="111.6" r="6.8"/>
<circle class="st0" cx="353.2" cy="111.6" r="6.8"/>
<circle class="st0" cx="318.7" cy="111.6" r="6.8"/>
<circle class="st0" cx="284.3" cy="111.6" r="6.8"/>
<circle class="st0" cx="456.7" cy="146.5" r="6.8"/>
<circle class="st1" cx="422.2" cy="146.5" r="6.8"/>
<circle class="st0" cx="387.7" cy="146.5" r="6.8"/>
<circle class="st0" cx="353.2" cy="146.5" r="6.8"/>
<circle class="st0" cx="318.7" cy="146.5" r="6.8"/>
<circle class="st0" cx="284.3" cy="146.5" r="6.8"/>
<circle class="st0" cx="456.7" cy="181.4" r="6.8"/>
<circle class="st0" cx="422.2" cy="181.4" r="6.8"/>
<circle class="st0" cx="387.7" cy="181.4" r="6.8"/>
<circle class="st0" cx="353.2" cy="181.4" r="6.8"/>
<circle class="st1" cx="318.7" cy="181.4" r="6.8"/>
<circle class="st0" cx="284.3" cy="181.4" r="6.8"/>
<circle class="st0" cx="456.7" cy="216.3" r="6.8"/>
<circle class="st0" cx="422.2" cy="216.3" r="6.8"/>
<circle class="st0" cx="387.7" cy="216.3" r="6.8"/>
<circle class="st0" cx="353.2" cy="216.3" r="6.8"/>
<circle class="st0" cx="318.7" cy="216.3" r="6.8"/>
<circle class="st0" cx="284.3" cy="216.3" r="6.8"/>
<circle class="st0" cx="594.7" cy="251.3" r="6.8"/>
<circle class="st0" cx="560.2" cy="251.3" r="6.8"/>
<circle class="st0" cx="525.7" cy="251.3" r="6.8"/>
<circle class="st0" cx="491.2" cy="251.3" r="6.8"/>
<circle class="st0" cx="456.7" cy="251.3" r="6.8"/>
<circle class="st0" cx="422.2" cy="251.3" r="6.8"/>
<circle class="st0" cx="387.7" cy="251.3" r="6.8"/>
<circle class="st0" cx="353.2" cy="251.3" r="6.8"/>
<circle class="st0" cx="318.7" cy="251.3" r="6.8"/>
<circle class="st0" cx="284.3" cy="251.3" r="6.8"/>
<circle class="st0" cx="594.7" cy="286.2" r="6.8"/>
<circle class="st0" cx="560.2" cy="286.2" r="6.8"/>
<circle class="st0" cx="594.7" cy="321.1" r="6.8"/>
<circle class="st0" cx="560.2" cy="321.1" r="6.8"/>
<path class="st0" d="M142.4,75.4v-67c0-2.8,2.2-5,5-5h270c2.8,0,5,2.2,5,5v67c0,2.8-2.2,5-5,5h-270
	C144.7,80.4,142.4,78.1,142.4,75.4z M147.4,5.4c-1.7,0-3,1.3-3,3v67c0,1.7,1.3,3,3,3h270c1.7,0,3-1.3,3-3v-67c0-1.7-1.3-3-3-3H147.4
	z"/>
<circle class="st1" cx="186.4" cy="41.9" r="21"/>
<path class="st0" d="M226,27.9c-1.9,0-3.5,1.6-3.5,3.5s1.6,3.5,3.5,3.5h93c1.9,0,3.5-1.6,3.5-3.5s-1.6-3.5-3.5-3.5H226z"/>
<path class="st0" d="M226,48.9c-1.9,0-3.5,1.6-3.5,3.5s1.6,3.5,3.5,3.5h165c1.9,0,3.5-1.6,3.5-3.5s-1.6-3.5-3.5-3.5H226z"/>
<path class="st0" d="M489.4,211.4v-67c0-2.8,2.2-5,5-5h270c2.8,0,5,2.2,5,5v67c0,2.8-2.2,5-5,5h-270
	C491.7,216.4,489.4,214.1,489.4,211.4z M494.4,141.4c-1.7,0-3,1.3-3,3v67c0,1.7,1.3,3,3,3h270c1.7,0,3-1.3,3-3v-67c0-1.7-1.3-3-3-3
	H494.4z"/>
<circle class="st1" cx="530.2" cy="177.9" r="21"/>
<path class="st0" d="M583.9,163.9c-1.9,0-3.5,1.6-3.5,3.5s1.6,3.5,3.5,3.5h97c1.9,0,3.5-1.6,3.5-3.5s-1.6-3.5-3.5-3.5H583.9z"/>
<path class="st0" d="M583.9,184.9c-1.9,0-3.5,1.6-3.5,3.5s1.6,3.5,3.5,3.5h165c1.9,0,3.5-1.6,3.5-3.5s-1.6-3.5-3.5-3.5H583.9z"/>
<path class="st2" d="M245.4,358.4v-67c0-2.8,2.2-5,5-5l270,0c2.8,0,5,2.2,5,5v67c0,2.8-2.2,5-5,5l-270,0
	C247.7,363.4,245.4,361.1,245.4,358.4z M250.4,288.4c-1.7,0-3,1.3-3,3v67c0,1.7,1.3,3,3,3l270,0c1.7,0,3-1.3,3-3v-67
	c0-1.7-1.3-3-3-3L250.4,288.4z"/>
<circle class="st1" cx="284.3" cy="324.9" r="21"/>
<path class="st0" d="M331.1,310.9c-1.9,0-3.5,1.6-3.5,3.5s1.6,3.5,3.5,3.5h89c1.9,0,3.5-1.6,3.5-3.5s-1.6-3.5-3.5-3.5H331.1z"/>
<path class="st0" d="M331.1,331.9c-1.9,0-3.5,1.6-3.5,3.5s1.6,3.5,3.5,3.5l165,0c1.9,0,3.5-1.6,3.5-3.5s-1.6-3.5-3.5-3.5
	L331.1,331.9z"/>
<path class="st0" d="M112.6,208.9c0,0,20.3-12.8,39.4,2.1l12.8,133.2c0,0-48,37.3-59.7,2.1L112.6,208.9z"/>
<polygon class="st3" points="107.7,511.7 95.4,511.7 91.3,464.6 107.7,464.5 "/>
<path class="st4" d="M110.8,523.6H71.3v-0.5c0-8.5,6.9-15.4,15.4-15.4h24.1V523.6z"/>
<polygon class="st3" points="152,511.7 164.3,511.7 170.1,464.5 152,464.5 "/>
<path class="st4" d="M148.9,523.6l0-15.9l24.1,0c8.5,0,15.4,6.9,15.4,15.4v0.5L148.9,523.6z"/>
<path class="st4" d="M91.4,504.1L80.7,344.7l0.1-0.1c12.8-24.6,91-7.4,94.4-6.7l0.4,0.1l-5.4,165.1L150,502l-19.8-123.2l-21.4,124.8
	L91.4,504.1z"/>
<circle class="st3" cx="131.5" cy="170.8" r="24.6"/>
<path class="st4" d="M109.5,357.1c-2.7,0-5.9-2-10-6.1c-6.6-6.6-10.7-8.7-12-9.3c-0.4,2-2.1,8.4-7.9,8.4c-0.4,0-0.7-0.2-0.9-0.5
	c-5.6-6.4,0-109.9,2-125.3c2.1-15.8,26.7-16.4,29.1-16.4l6.8-4.5l5,13.8c21.6,19.7-3.9,128.3-4.2,129.4c-1.6,6.3-3.7,9.6-6.5,10.4
	C110.4,357,109.9,357.1,109.5,357.1z"/>
<path class="st4" d="M154.1,357.1c-0.5,0-0.9-0.1-1.4-0.2c-2.9-0.8-5-4.1-6.5-10.4c-0.3-1.1-25.8-109.7-4.2-129.4l5-13.8l6.8,4.5
	c2.4,0,27,0.6,29.1,16.4c2.1,15.4,7.7,118.9,2,125.3c-0.2,0.3-0.6,0.5-0.9,0.5c-5.7,0-7.4-6.3-7.9-8.4c-1.4,0.6-5.4,2.6-12,9.3
	C160,355.1,156.8,357.1,154.1,357.1z"/>
<path class="st4" d="M111.5,185.8c-2.5-2.6-3.8-6.1-3.7-9.6c0.2-7.4,6.4-13.2,13.8-12.9c3.4,0.1,6.6,1.5,9.8,2.5
	c4.9,1.7,10.2,2.1,15.3,1.4c5.2-0.8,9.8-3.6,13-7.7c3-4.2,4-10,1.8-14.7c-2.5-5.4-8.3-8.4-13.7-10.8c-2.2-1.1-4.5-1.9-7-2.3
	c-2.5-0.4-5,0.2-6.9,1.7c-1.5,1.3-2.4,3.3-4.1,4.4c-1.9,1.3-4.3,1.3-6.6,1.5c-7.2,0.7-13.7,4.5-18,10.4c-8.1,11.3-5.6,27.1,5.7,35.2
	"/>
<path class="st3" d="M256.1,321.2c0.6-5.9-3.8-11.2-9.7-11.8l-15.1-23.8l-11.1,10.1l14.3,24.2c-0.1,6,4.6,10.9,10.5,11
	C250.7,331.1,255.5,326.9,256.1,321.2z"/>
<path class="st3" d="M93.4,354.9c3.6-4.7,2.7-11.5-2.1-15.1L91,311.6l-14.8,2.8l-0.5,28.1l0,0c-3.3,5-1.8,11.7,3.1,14.9
	C83.6,360.5,90,359.5,93.4,354.9z"/>
<path class="st4" d="M227.8,306.5c-1,0.6-2,1.1-3.1,1.3c-1.3,0.3-2.6,0-3.7-0.7c-6.7-4.7-57.2-75.2-59.1-78.8l6-15l5.6,0.1l0.1,0.1
	c0.5,0.4,45.5,43.5,67,78l0.2,0.3l-0.2,0.3C240.4,292.6,234,302.7,227.8,306.5z"/>
<path class="st4" d="M90.2,332.1c-7.5,0-18.8-5.2-19.4-5.5l-0.3-0.1l0-0.3c-3.7-40.1,9.9-100.5,10-101.1l0-0.2l4.7-3l0.1,0.8
	c0.6,4,14.4,98.8,11.2,106.3c-0.5,1.2-1.5,2.1-2.7,2.5C92.7,331.9,91.5,332.1,90.2,332.1z"/>
<path class="st2" d="M0,523.4c0-0.6,0.4-1,1-1h266c0.6,0,1,0.4,1,1s-0.4,1-1,1H1C0.4,524.4,0,523.9,0,523.4z"/>
</svg>
