<?xml version="1.0" encoding="utf-8"?>
<!-- Generator: Adobe Illustrator 21.0.0, SVG Export Plug-In . SVG Version: 6.00 Build 0)  -->
<svg version="1.1" id="a6d09f17-7a71-4d3b-9de6-8b8ba964cb80"
	 xmlns="http://www.w3.org/2000/svg" xmlns:xlink="http://www.w3.org/1999/xlink" x="0px" y="0px" viewBox="0 0 883.7 724.2"
	 style="enable-background:new 0 0 883.7 724.2;" xml:space="preserve">
<style type="text/css">
	.st0{fill:#E6E6E6;}
	.st1{fill:#FFFFFF;}
	.st2{fill:#4C3CFF;}
	.st3{fill:#FFB8B8;}
	.st4{fill:#2F2E41;}
</style>
<path class="st0" d="M657.5,567.6h-274c-9.1,0-16.5-7.4-16.5-16.5v-197c0-9.1,7.4-16.5,16.5-16.5h274c9.1,0,16.5,7.4,16.5,16.5v197
	C674,560.2,666.6,567.6,657.5,567.6z"/>
<path class="st1" d="M388.6,554.5h263.9c4.4,0,8-3.6,8-8V358.8c0-4.4-3.6-8-8-8H388.6c-4.4,0-8,3.6-8,8v187.7
	C380.6,550.9,384.2,554.5,388.6,554.5z"/>
<path class="st0" d="M621,409.1H452.5c-3.3,0-6,2.7-6,6s2.7,6,6,6l0,0H621c3.3,0,6-2.7,6-6S624.3,409.1,621,409.1z"/>
<path class="st0" d="M452.5,446.1c-3.3,0-6,2.7-6,6c0,3.3,2.7,6,6,6l0,0H621c3.3,0,6-2.7,6-6c0-3.3-2.7-6-6-6H452.5z"/>
<path class="st0" d="M452.5,483.2c-3.3,0-6,2.7-6,6c0,3.3,2.7,6,6,6l0,0H621c3.3,0,6-2.7,6-6c0-3.3-2.7-6-6-6H452.5z"/>
<circle class="st2" cx="420.5" cy="415.6" r="7.4"/>
<circle class="st0" cx="420.5" cy="452.6" r="7.4"/>
<circle class="st0" cx="420.5" cy="489.7" r="7.4"/>
<path class="st2" d="M553.9,415.1L553.9,415.1c0,3.3-2.7,6-6,6h0h-95.2c-3.1,0-5.7-2.2-6.2-5.2c-0.4-3.3,1.9-6.3,5.2-6.8
	c0.3,0,0.5-0.1,0.8-0.1h95.4C551.2,409.1,553.9,411.8,553.9,415.1L553.9,415.1z"/>
<circle class="st0" cx="520.5" cy="288.2" r="24.1"/>
<ellipse transform="matrix(0.1602 -0.9871 0.9871 0.1602 152.645 755.8859)" class="st1" cx="520.5" cy="288.2" rx="12" ry="12"/>
<polygon class="st3" points="748.1,711.2 736.7,711.2 731.3,667.1 748.1,667.1 "/>
<path class="st4" d="M728.5,708h22l0,0v13.9l0,0h-35.9l0,0l0,0C714.6,714.2,720.9,708,728.5,708L728.5,708z"/>
<polygon class="st3" points="809.7,711.2 798.3,711.2 792.9,667.1 809.7,667.1 "/>
<path class="st4" d="M790.1,708h22l0,0v13.9l0,0h-35.9l0,0l0,0C776.3,714.2,782.5,708,790.1,708L790.1,708z"/>
<circle class="st3" cx="776.3" cy="373.2" r="24.6"/>
<path class="st3" d="M692.3,533.4c0.6-5.1,5.3-8.8,10.5-8.1c0.5,0.1,1.1,0.2,1.6,0.4l13.7-16.5l12,5.9l-19.7,23
	c-1.9,4.9-7.3,7.3-12.2,5.4C694.2,541.9,691.7,537.7,692.3,533.4L692.3,533.4z"/>
<path class="st3" d="M810.4,550c-2.2-4.7-0.2-10.3,4.5-12.5c0.5-0.2,1-0.4,1.6-0.6l2.8-21.3l13.3-1.5l-4.3,30
	c1,5.1-2.3,10.1-7.4,11.1C816.5,556.2,812.2,554,810.4,550L810.4,550z"/>
<path class="st2" d="M796.8,419.6L796.8,419.6c4.1-5.3,11.7-6.2,17-2.1c1.7,1.3,3,3.1,3.8,5l20.1,50.2c2.1,5.1,2.7,10.7,1.9,16.2
	l-6.6,44.2c-0.3,2.2-2.4,3.7-4.5,3.4c-0.2,0-0.4-0.1-0.6-0.1l-8.6-2.7c-1.8-0.6-3-2.4-2.8-4.3l0,0c3-26-1-52.3-11.7-76.2l-9.5-21.2
	C793.5,427.9,794,423.1,796.8,419.6z"/>
<path class="st4" d="M782.2,397.8c14.5,0.3,26.5-11.2,26.8-25.6c0.3-14.5-11.2-26.5-25.6-26.8c-2,0-4.1,0.1-6,0.6
	c-5.4-3.3-11.7-5.5-18-4.9s-12.5,4.3-14.9,10.2s0.2,13.6,6,16c3.8,1.5,8,0.8,12,0.2s8.4-1,11.9,1s5.1,7.6,1.9,10.2
	c-3.4,2.9-4.6,7.6-3.1,11.8C774.8,394.4,779.1,397.7,782.2,397.8z"/>
<path class="st4" d="M812.7,532.4l4.4,165.3c0.1,2.2-1.7,4-3.9,4.1c-0.1,0-0.2,0-0.3,0l-14.4-0.7c-1.9-0.1-3.4-1.5-3.7-3.4
	l-17.1-107.4c-0.2-1.1-1.2-1.8-2.3-1.7c-0.8,0.1-1.5,0.7-1.6,1.5l-23.1,103.4c-0.5,2.2-2.6,3.5-4.8,3c-0.2,0-0.3-0.1-0.5-0.1
	l-14.2-0.9c-1.7-0.6-2.8-2.3-2.6-4.1L741,530.8L812.7,532.4z"/>
<path class="st2" d="M819.7,453.9c2.4-25.1-16-47.7-41.1-49.5c-10.8-0.8-27.6-1-33.1,13.1c-16.7,42.7,12.5,41.7,2.5,78.7
	s-18.9,39.1-5.1,41.8s75.9,18.4,73.3-7.6C814.5,514.4,817.3,478.9,819.7,453.9z"/>
<path class="st2" d="M748.4,413.2L748.4,413.2c6.2-2.4,13.2,0.7,15.6,6.9c0.8,2,1,4.2,0.7,6.3l-7.8,49c-1.3,8.4-4.9,16.2-10.3,22.8
	l-25.5,31c-1.4,1.7-3.9,2-5.6,0.6c-0.2-0.1-0.3-0.3-0.4-0.4l-6-6.7c-1.3-1.4-1.4-3.6-0.2-5.1l1.8-2.3c14.8-19.2,24.2-42.1,27-66.2
	l3.1-26C741.3,418.6,744.2,414.8,748.4,413.2z"/>
</svg>
